<mxfile host="app.diagrams.net" modified="2023-02-03T20:03:11.157Z" agent="5.0 (Windows)" etag="uJ0h5Yqic7eYm6ejVJTQ" version="20.8.16" type="github">
  <diagram name="Page-1" id="p2lF4CjEwVdkAPOwomgc">
    <mxGraphModel dx="17600" dy="9400" grid="1" gridSize="10" guides="1" tooltips="1" connect="1" arrows="1" fold="1" page="1" pageScale="1" pageWidth="827" pageHeight="1169" math="0" shadow="0">
      <root>
        <mxCell id="0" />
        <mxCell id="1" parent="0" />
        <mxCell id="h1d5hpDYS3AxuV8sNcCp-1" value="utilisateur" style="shape=umlActor;verticalLabelPosition=bottom;verticalAlign=top;html=1;outlineConnect=0;" vertex="1" parent="1">
          <mxGeometry x="50" y="40" width="40" height="70" as="geometry" />
        </mxCell>
        <mxCell id="h1d5hpDYS3AxuV8sNcCp-2" value="Créer compte" style="ellipse;whiteSpace=wrap;html=1;" vertex="1" parent="1">
          <mxGeometry x="230" y="40" width="120" height="30" as="geometry" />
        </mxCell>
        <mxCell id="h1d5hpDYS3AxuV8sNcCp-4" value="Consulter les evenememnts" style="ellipse;whiteSpace=wrap;html=1;" vertex="1" parent="1">
          <mxGeometry x="210" y="110" width="180" height="30" as="geometry" />
        </mxCell>
        <mxCell id="h1d5hpDYS3AxuV8sNcCp-6" value="" style="endArrow=none;html=1;rounded=0;entryX=0;entryY=0.5;entryDx=0;entryDy=0;" edge="1" parent="1" source="h1d5hpDYS3AxuV8sNcCp-1" target="h1d5hpDYS3AxuV8sNcCp-2">
          <mxGeometry width="50" height="50" relative="1" as="geometry">
            <mxPoint x="110" y="100" as="sourcePoint" />
            <mxPoint x="160" y="50" as="targetPoint" />
            <Array as="points">
              <mxPoint x="140" y="60" />
            </Array>
          </mxGeometry>
        </mxCell>
        <mxCell id="h1d5hpDYS3AxuV8sNcCp-7" value="" style="endArrow=none;html=1;rounded=0;entryX=0.013;entryY=0.322;entryDx=0;entryDy=0;entryPerimeter=0;" edge="1" parent="1" source="h1d5hpDYS3AxuV8sNcCp-1" target="h1d5hpDYS3AxuV8sNcCp-4">
          <mxGeometry width="50" height="50" relative="1" as="geometry">
            <mxPoint x="130" y="120" as="sourcePoint" />
            <mxPoint x="180" y="70" as="targetPoint" />
          </mxGeometry>
        </mxCell>
        <mxCell id="h1d5hpDYS3AxuV8sNcCp-12" style="edgeStyle=orthogonalEdgeStyle;rounded=0;orthogonalLoop=1;jettySize=auto;html=1;" edge="1" parent="1" source="h1d5hpDYS3AxuV8sNcCp-8">
          <mxGeometry relative="1" as="geometry">
            <mxPoint x="70" y="130" as="targetPoint" />
          </mxGeometry>
        </mxCell>
        <mxCell id="h1d5hpDYS3AxuV8sNcCp-8" value="Client" style="shape=umlActor;verticalLabelPosition=bottom;verticalAlign=top;html=1;outlineConnect=0;" vertex="1" parent="1">
          <mxGeometry x="50" y="290" width="40" height="60" as="geometry" />
        </mxCell>
        <mxCell id="h1d5hpDYS3AxuV8sNcCp-13" value="Editer profil" style="ellipse;whiteSpace=wrap;html=1;" vertex="1" parent="1">
          <mxGeometry x="250" y="200" width="120" height="30" as="geometry" />
        </mxCell>
        <mxCell id="h1d5hpDYS3AxuV8sNcCp-14" value="Gestion panier" style="ellipse;whiteSpace=wrap;html=1;" vertex="1" parent="1">
          <mxGeometry x="250" y="390" width="120" height="30" as="geometry" />
        </mxCell>
        <mxCell id="h1d5hpDYS3AxuV8sNcCp-15" value="Réserver événement" style="ellipse;whiteSpace=wrap;html=1;" vertex="1" parent="1">
          <mxGeometry x="245" y="330" width="130" height="30" as="geometry" />
        </mxCell>
        <mxCell id="h1d5hpDYS3AxuV8sNcCp-16" value="consulter liste ludification" style="ellipse;whiteSpace=wrap;html=1;" vertex="1" parent="1">
          <mxGeometry x="225" y="450" width="170" height="30" as="geometry" />
        </mxCell>
        <mxCell id="h1d5hpDYS3AxuV8sNcCp-17" value="Consulter les evenements" style="ellipse;whiteSpace=wrap;html=1;" vertex="1" parent="1">
          <mxGeometry x="215" y="260" width="190" height="40" as="geometry" />
        </mxCell>
        <mxCell id="h1d5hpDYS3AxuV8sNcCp-19" value="Gérer la liste des abonnés" style="ellipse;whiteSpace=wrap;html=1;" vertex="1" parent="1">
          <mxGeometry x="218" y="510" width="184" height="40" as="geometry" />
        </mxCell>
        <mxCell id="h1d5hpDYS3AxuV8sNcCp-21" style="edgeStyle=orthogonalEdgeStyle;rounded=0;orthogonalLoop=1;jettySize=auto;html=1;exitX=0.5;exitY=1;exitDx=0;exitDy=0;" edge="1" parent="1" source="h1d5hpDYS3AxuV8sNcCp-14" target="h1d5hpDYS3AxuV8sNcCp-14">
          <mxGeometry relative="1" as="geometry" />
        </mxCell>
        <mxCell id="h1d5hpDYS3AxuV8sNcCp-22" value="" style="endArrow=none;html=1;rounded=0;entryX=0;entryY=0.5;entryDx=0;entryDy=0;exitX=0.75;exitY=0.1;exitDx=0;exitDy=0;exitPerimeter=0;" edge="1" parent="1" source="h1d5hpDYS3AxuV8sNcCp-8" target="h1d5hpDYS3AxuV8sNcCp-13">
          <mxGeometry width="50" height="50" relative="1" as="geometry">
            <mxPoint x="90" y="290" as="sourcePoint" />
            <mxPoint x="140" y="240" as="targetPoint" />
          </mxGeometry>
        </mxCell>
        <mxCell id="h1d5hpDYS3AxuV8sNcCp-23" value="" style="endArrow=none;html=1;rounded=0;entryX=0;entryY=0.5;entryDx=0;entryDy=0;" edge="1" parent="1" source="h1d5hpDYS3AxuV8sNcCp-8" target="h1d5hpDYS3AxuV8sNcCp-15">
          <mxGeometry width="50" height="50" relative="1" as="geometry">
            <mxPoint x="140" y="360" as="sourcePoint" />
            <mxPoint x="190" y="310" as="targetPoint" />
          </mxGeometry>
        </mxCell>
        <mxCell id="h1d5hpDYS3AxuV8sNcCp-24" value="" style="endArrow=none;html=1;rounded=0;entryX=0;entryY=0.5;entryDx=0;entryDy=0;exitX=1;exitY=0.3333333333333333;exitDx=0;exitDy=0;exitPerimeter=0;" edge="1" parent="1" source="h1d5hpDYS3AxuV8sNcCp-8" target="h1d5hpDYS3AxuV8sNcCp-17">
          <mxGeometry width="50" height="50" relative="1" as="geometry">
            <mxPoint x="130" y="345" as="sourcePoint" />
            <mxPoint x="180" y="295" as="targetPoint" />
          </mxGeometry>
        </mxCell>
        <mxCell id="h1d5hpDYS3AxuV8sNcCp-25" value="" style="endArrow=none;html=1;rounded=0;entryX=0;entryY=0.5;entryDx=0;entryDy=0;" edge="1" parent="1" source="h1d5hpDYS3AxuV8sNcCp-8" target="h1d5hpDYS3AxuV8sNcCp-14">
          <mxGeometry width="50" height="50" relative="1" as="geometry">
            <mxPoint x="140" y="360" as="sourcePoint" />
            <mxPoint x="190" y="310" as="targetPoint" />
          </mxGeometry>
        </mxCell>
        <mxCell id="h1d5hpDYS3AxuV8sNcCp-26" value="" style="endArrow=none;html=1;rounded=0;entryX=0;entryY=0.5;entryDx=0;entryDy=0;" edge="1" parent="1" source="h1d5hpDYS3AxuV8sNcCp-8" target="h1d5hpDYS3AxuV8sNcCp-16">
          <mxGeometry width="50" height="50" relative="1" as="geometry">
            <mxPoint x="140" y="360" as="sourcePoint" />
            <mxPoint x="190" y="310" as="targetPoint" />
          </mxGeometry>
        </mxCell>
        <mxCell id="h1d5hpDYS3AxuV8sNcCp-27" value="" style="endArrow=none;html=1;rounded=0;entryX=0;entryY=0.5;entryDx=0;entryDy=0;" edge="1" parent="1" source="h1d5hpDYS3AxuV8sNcCp-8" target="h1d5hpDYS3AxuV8sNcCp-19">
          <mxGeometry width="50" height="50" relative="1" as="geometry">
            <mxPoint x="140" y="360" as="sourcePoint" />
            <mxPoint x="190" y="310" as="targetPoint" />
          </mxGeometry>
        </mxCell>
        <mxCell id="h1d5hpDYS3AxuV8sNcCp-30" style="edgeStyle=orthogonalEdgeStyle;rounded=0;orthogonalLoop=1;jettySize=auto;html=1;exitX=0.5;exitY=0;exitDx=0;exitDy=0;exitPerimeter=0;" edge="1" parent="1" source="h1d5hpDYS3AxuV8sNcCp-28">
          <mxGeometry relative="1" as="geometry">
            <mxPoint x="70" y="370" as="targetPoint" />
          </mxGeometry>
        </mxCell>
        <mxCell id="h1d5hpDYS3AxuV8sNcCp-28" value="&lt;div&gt;Organisateur&lt;/div&gt;&lt;div&gt;&lt;br&gt;&lt;/div&gt;" style="shape=umlActor;verticalLabelPosition=bottom;verticalAlign=top;html=1;outlineConnect=0;" vertex="1" parent="1">
          <mxGeometry x="50" y="680" width="40" height="60" as="geometry" />
        </mxCell>
        <mxCell id="h1d5hpDYS3AxuV8sNcCp-31" value="Editer profil" style="ellipse;whiteSpace=wrap;html=1;" vertex="1" parent="1">
          <mxGeometry x="245" y="600" width="110" height="30" as="geometry" />
        </mxCell>
        <mxCell id="h1d5hpDYS3AxuV8sNcCp-32" value="Gerer les evenements" style="ellipse;whiteSpace=wrap;html=1;" vertex="1" parent="1">
          <mxGeometry x="232.5" y="660" width="145" height="30" as="geometry" />
        </mxCell>
        <mxCell id="h1d5hpDYS3AxuV8sNcCp-33" value="Consulter statistique" style="ellipse;whiteSpace=wrap;html=1;" vertex="1" parent="1">
          <mxGeometry x="240" y="720" width="130" height="30" as="geometry" />
        </mxCell>
        <mxCell id="h1d5hpDYS3AxuV8sNcCp-34" value="Gerer compte utilisateurs &quot;portier&quot;" style="ellipse;whiteSpace=wrap;html=1;" vertex="1" parent="1">
          <mxGeometry x="207" y="780" width="195" height="30" as="geometry" />
        </mxCell>
        <mxCell id="h1d5hpDYS3AxuV8sNcCp-35" value="Gerer les reclamation" style="ellipse;whiteSpace=wrap;html=1;" vertex="1" parent="1">
          <mxGeometry x="227" y="840" width="155" height="30" as="geometry" />
        </mxCell>
        <mxCell id="h1d5hpDYS3AxuV8sNcCp-36" value="" style="endArrow=none;html=1;rounded=0;entryX=0.006;entryY=0.291;entryDx=0;entryDy=0;entryPerimeter=0;" edge="1" parent="1" target="h1d5hpDYS3AxuV8sNcCp-33">
          <mxGeometry width="50" height="50" relative="1" as="geometry">
            <mxPoint x="90" y="710" as="sourcePoint" />
            <mxPoint x="232.5" y="720" as="targetPoint" />
          </mxGeometry>
        </mxCell>
        <mxCell id="h1d5hpDYS3AxuV8sNcCp-37" value="" style="endArrow=none;html=1;rounded=0;entryX=0;entryY=0.5;entryDx=0;entryDy=0;" edge="1" parent="1" source="h1d5hpDYS3AxuV8sNcCp-28" target="h1d5hpDYS3AxuV8sNcCp-32">
          <mxGeometry width="50" height="50" relative="1" as="geometry">
            <mxPoint x="168" y="730" as="sourcePoint" />
            <mxPoint x="218" y="680" as="targetPoint" />
          </mxGeometry>
        </mxCell>
        <mxCell id="h1d5hpDYS3AxuV8sNcCp-38" value="" style="endArrow=none;html=1;rounded=0;entryX=0;entryY=0.5;entryDx=0;entryDy=0;" edge="1" parent="1" source="h1d5hpDYS3AxuV8sNcCp-28" target="h1d5hpDYS3AxuV8sNcCp-31">
          <mxGeometry width="50" height="50" relative="1" as="geometry">
            <mxPoint x="165" y="670" as="sourcePoint" />
            <mxPoint x="215" y="620" as="targetPoint" />
          </mxGeometry>
        </mxCell>
        <mxCell id="h1d5hpDYS3AxuV8sNcCp-39" value="" style="endArrow=none;html=1;rounded=0;entryX=0.018;entryY=0.445;entryDx=0;entryDy=0;entryPerimeter=0;" edge="1" parent="1" source="h1d5hpDYS3AxuV8sNcCp-28" target="h1d5hpDYS3AxuV8sNcCp-34">
          <mxGeometry width="50" height="50" relative="1" as="geometry">
            <mxPoint x="90" y="730" as="sourcePoint" />
            <mxPoint x="290" y="670" as="targetPoint" />
          </mxGeometry>
        </mxCell>
        <mxCell id="h1d5hpDYS3AxuV8sNcCp-40" value="" style="endArrow=none;html=1;rounded=0;exitX=1;exitY=1;exitDx=0;exitDy=0;exitPerimeter=0;entryX=0;entryY=0.5;entryDx=0;entryDy=0;" edge="1" parent="1" source="h1d5hpDYS3AxuV8sNcCp-28" target="h1d5hpDYS3AxuV8sNcCp-35">
          <mxGeometry width="50" height="50" relative="1" as="geometry">
            <mxPoint x="290" y="840" as="sourcePoint" />
            <mxPoint x="340" y="790" as="targetPoint" />
          </mxGeometry>
        </mxCell>
        <mxCell id="h1d5hpDYS3AxuV8sNcCp-41" value="Agent" style="shape=umlActor;verticalLabelPosition=bottom;verticalAlign=top;html=1;outlineConnect=0;" vertex="1" parent="1">
          <mxGeometry x="50" y="930" width="30" height="60" as="geometry" />
        </mxCell>
        <mxCell id="h1d5hpDYS3AxuV8sNcCp-45" value="Editer profil" style="ellipse;whiteSpace=wrap;html=1;" vertex="1" parent="1">
          <mxGeometry x="225" y="910" width="100" height="40" as="geometry" />
        </mxCell>
        <mxCell id="h1d5hpDYS3AxuV8sNcCp-46" value="Consulter la list des evenements superviser" style="ellipse;whiteSpace=wrap;html=1;" vertex="1" parent="1">
          <mxGeometry x="155" y="1000" width="270" height="40" as="geometry" />
        </mxCell>
        <mxCell id="h1d5hpDYS3AxuV8sNcCp-47" value="" style="endArrow=none;html=1;rounded=0;entryX=0;entryY=0.5;entryDx=0;entryDy=0;" edge="1" parent="1" source="h1d5hpDYS3AxuV8sNcCp-41" target="h1d5hpDYS3AxuV8sNcCp-46">
          <mxGeometry width="50" height="50" relative="1" as="geometry">
            <mxPoint x="250" y="1040" as="sourcePoint" />
            <mxPoint x="300" y="990" as="targetPoint" />
          </mxGeometry>
        </mxCell>
        <mxCell id="h1d5hpDYS3AxuV8sNcCp-48" value="" style="endArrow=none;html=1;rounded=0;entryX=0;entryY=0.5;entryDx=0;entryDy=0;" edge="1" parent="1" source="h1d5hpDYS3AxuV8sNcCp-41" target="h1d5hpDYS3AxuV8sNcCp-45">
          <mxGeometry width="50" height="50" relative="1" as="geometry">
            <mxPoint x="130" y="970" as="sourcePoint" />
            <mxPoint x="180" y="920" as="targetPoint" />
          </mxGeometry>
        </mxCell>
        <mxCell id="h1d5hpDYS3AxuV8sNcCp-49" value="s&#39;authentifier" style="ellipse;whiteSpace=wrap;html=1;" vertex="1" parent="1">
          <mxGeometry x="610" y="420" width="120" height="40" as="geometry" />
        </mxCell>
        <mxCell id="h1d5hpDYS3AxuV8sNcCp-50" value="&amp;lt;&amp;lt;include&amp;gt;&amp;gt;" style="html=1;verticalAlign=bottom;labelBackgroundColor=none;endArrow=open;endFill=0;dashed=1;rounded=0;exitX=1;exitY=0.5;exitDx=0;exitDy=0;entryX=0.788;entryY=0.1;entryDx=0;entryDy=0;entryPerimeter=0;" edge="1" parent="1" source="h1d5hpDYS3AxuV8sNcCp-13" target="h1d5hpDYS3AxuV8sNcCp-49">
          <mxGeometry width="160" relative="1" as="geometry">
            <mxPoint x="420" y="260" as="sourcePoint" />
            <mxPoint x="580" y="260" as="targetPoint" />
            <Array as="points">
              <mxPoint x="700" y="215" />
            </Array>
          </mxGeometry>
        </mxCell>
        <mxCell id="h1d5hpDYS3AxuV8sNcCp-52" value="&amp;lt;&amp;lt;include&amp;gt;&amp;gt;" style="html=1;verticalAlign=bottom;labelBackgroundColor=none;endArrow=open;endFill=0;dashed=1;rounded=0;entryX=0.5;entryY=0;entryDx=0;entryDy=0;" edge="1" parent="1" target="h1d5hpDYS3AxuV8sNcCp-49">
          <mxGeometry width="160" relative="1" as="geometry">
            <mxPoint x="375" y="344.64" as="sourcePoint" />
            <mxPoint x="535" y="344.64" as="targetPoint" />
            <Array as="points">
              <mxPoint x="670" y="340" />
            </Array>
          </mxGeometry>
        </mxCell>
        <mxCell id="h1d5hpDYS3AxuV8sNcCp-53" value="&amp;lt;&amp;lt;include&amp;gt;&amp;gt;" style="html=1;verticalAlign=bottom;labelBackgroundColor=none;endArrow=open;endFill=0;dashed=1;rounded=0;exitX=1;exitY=0.5;exitDx=0;exitDy=0;entryX=0.615;entryY=-0.043;entryDx=0;entryDy=0;entryPerimeter=0;" edge="1" parent="1" source="h1d5hpDYS3AxuV8sNcCp-17" target="h1d5hpDYS3AxuV8sNcCp-49">
          <mxGeometry width="160" relative="1" as="geometry">
            <mxPoint x="414" y="300" as="sourcePoint" />
            <mxPoint x="574" y="300" as="targetPoint" />
            <Array as="points">
              <mxPoint x="684" y="280" />
            </Array>
          </mxGeometry>
        </mxCell>
        <mxCell id="h1d5hpDYS3AxuV8sNcCp-54" value="&amp;lt;&amp;lt;include&amp;gt;&amp;gt;" style="html=1;verticalAlign=bottom;labelBackgroundColor=none;endArrow=open;endFill=0;dashed=1;rounded=0;entryX=0.35;entryY=0.028;entryDx=0;entryDy=0;entryPerimeter=0;" edge="1" parent="1" target="h1d5hpDYS3AxuV8sNcCp-49">
          <mxGeometry width="160" relative="1" as="geometry">
            <mxPoint x="355" y="404.64" as="sourcePoint" />
            <mxPoint x="640" y="400" as="targetPoint" />
            <Array as="points">
              <mxPoint x="652" y="405" />
            </Array>
          </mxGeometry>
        </mxCell>
        <mxCell id="h1d5hpDYS3AxuV8sNcCp-55" value="&amp;lt;&amp;lt;include&amp;gt;&amp;gt;" style="html=1;verticalAlign=bottom;labelBackgroundColor=none;endArrow=open;endFill=0;dashed=1;rounded=0;exitX=1;exitY=0.5;exitDx=0;exitDy=0;entryX=-0.016;entryY=0.362;entryDx=0;entryDy=0;entryPerimeter=0;" edge="1" parent="1" source="h1d5hpDYS3AxuV8sNcCp-16" target="h1d5hpDYS3AxuV8sNcCp-49">
          <mxGeometry width="160" relative="1" as="geometry">
            <mxPoint x="360" y="490" as="sourcePoint" />
            <mxPoint x="520" y="490" as="targetPoint" />
            <Array as="points">
              <mxPoint x="410" y="434" />
            </Array>
          </mxGeometry>
        </mxCell>
        <mxCell id="h1d5hpDYS3AxuV8sNcCp-56" value="&amp;lt;&amp;lt;include&amp;gt;&amp;gt;" style="html=1;verticalAlign=bottom;labelBackgroundColor=none;endArrow=open;endFill=0;dashed=1;rounded=0;exitX=1;exitY=0.5;exitDx=0;exitDy=0;entryX=0.092;entryY=0.818;entryDx=0;entryDy=0;entryPerimeter=0;" edge="1" parent="1" source="h1d5hpDYS3AxuV8sNcCp-19" target="h1d5hpDYS3AxuV8sNcCp-49">
          <mxGeometry width="160" relative="1" as="geometry">
            <mxPoint x="360" y="490" as="sourcePoint" />
            <mxPoint x="520" y="490" as="targetPoint" />
            <Array as="points">
              <mxPoint x="430" y="453" />
            </Array>
          </mxGeometry>
        </mxCell>
        <mxCell id="h1d5hpDYS3AxuV8sNcCp-57" value="&amp;lt;&amp;lt;include&amp;gt;&amp;gt;" style="html=1;verticalAlign=bottom;labelBackgroundColor=none;endArrow=open;endFill=0;dashed=1;rounded=0;exitX=0.955;exitY=0.333;exitDx=0;exitDy=0;exitPerimeter=0;entryX=0;entryY=1;entryDx=0;entryDy=0;" edge="1" parent="1" source="h1d5hpDYS3AxuV8sNcCp-31" target="h1d5hpDYS3AxuV8sNcCp-49">
          <mxGeometry width="160" relative="1" as="geometry">
            <mxPoint x="355" y="614.33" as="sourcePoint" />
            <mxPoint x="515" y="614.33" as="targetPoint" />
            <Array as="points">
              <mxPoint x="490" y="600" />
            </Array>
          </mxGeometry>
        </mxCell>
        <mxCell id="h1d5hpDYS3AxuV8sNcCp-58" value="&amp;lt;&amp;lt;include&amp;gt;&amp;gt;" style="html=1;verticalAlign=bottom;labelBackgroundColor=none;endArrow=open;endFill=0;dashed=1;rounded=0;exitX=1;exitY=0.5;exitDx=0;exitDy=0;entryX=0.286;entryY=0.992;entryDx=0;entryDy=0;entryPerimeter=0;" edge="1" parent="1" source="h1d5hpDYS3AxuV8sNcCp-32" target="h1d5hpDYS3AxuV8sNcCp-49">
          <mxGeometry x="-0.6845" y="8" width="160" relative="1" as="geometry">
            <mxPoint x="520" y="630" as="sourcePoint" />
            <mxPoint x="680" y="630" as="targetPoint" />
            <Array as="points">
              <mxPoint x="490" y="640" />
            </Array>
            <mxPoint as="offset" />
          </mxGeometry>
        </mxCell>
        <mxCell id="h1d5hpDYS3AxuV8sNcCp-59" value="&amp;lt;&amp;lt;include&amp;gt;&amp;gt;" style="html=1;verticalAlign=bottom;labelBackgroundColor=none;endArrow=open;endFill=0;dashed=1;rounded=0;exitX=1;exitY=0.5;exitDx=0;exitDy=0;entryX=0.419;entryY=1.087;entryDx=0;entryDy=0;entryPerimeter=0;" edge="1" parent="1" source="h1d5hpDYS3AxuV8sNcCp-33" target="h1d5hpDYS3AxuV8sNcCp-49">
          <mxGeometry x="-0.8111" width="160" relative="1" as="geometry">
            <mxPoint x="520" y="709.41" as="sourcePoint" />
            <mxPoint x="690" y="470" as="targetPoint" />
            <Array as="points">
              <mxPoint x="450" y="735" />
            </Array>
            <mxPoint as="offset" />
          </mxGeometry>
        </mxCell>
        <mxCell id="h1d5hpDYS3AxuV8sNcCp-60" value="&amp;lt;&amp;lt;include&amp;gt;&amp;gt;" style="html=1;verticalAlign=bottom;labelBackgroundColor=none;endArrow=open;endFill=0;dashed=1;rounded=0;exitX=1;exitY=0.5;exitDx=0;exitDy=0;entryX=0.566;entryY=1.057;entryDx=0;entryDy=0;entryPerimeter=0;" edge="1" parent="1" source="h1d5hpDYS3AxuV8sNcCp-34" target="h1d5hpDYS3AxuV8sNcCp-49">
          <mxGeometry x="-0.8757" y="5" width="160" relative="1" as="geometry">
            <mxPoint x="440" y="794.41" as="sourcePoint" />
            <mxPoint x="680" y="470" as="targetPoint" />
            <Array as="points">
              <mxPoint x="460" y="795" />
            </Array>
            <mxPoint as="offset" />
          </mxGeometry>
        </mxCell>
        <mxCell id="h1d5hpDYS3AxuV8sNcCp-61" value="&amp;lt;&amp;lt;include&amp;gt;&amp;gt;" style="html=1;verticalAlign=bottom;labelBackgroundColor=none;endArrow=open;endFill=0;dashed=1;rounded=0;exitX=1;exitY=0.5;exitDx=0;exitDy=0;entryX=1;entryY=1;entryDx=0;entryDy=0;" edge="1" parent="1" source="h1d5hpDYS3AxuV8sNcCp-46" target="h1d5hpDYS3AxuV8sNcCp-49">
          <mxGeometry x="-0.8443" y="10" width="160" relative="1" as="geometry">
            <mxPoint x="460" y="1030" as="sourcePoint" />
            <mxPoint x="620" y="1030" as="targetPoint" />
            <Array as="points">
              <mxPoint x="540" y="1020" />
            </Array>
            <mxPoint as="offset" />
          </mxGeometry>
        </mxCell>
        <mxCell id="h1d5hpDYS3AxuV8sNcCp-62" value="&amp;lt;&amp;lt;include&amp;gt;&amp;gt;" style="html=1;verticalAlign=bottom;labelBackgroundColor=none;endArrow=open;endFill=0;dashed=1;rounded=0;entryX=0.772;entryY=1.028;entryDx=0;entryDy=0;entryPerimeter=0;" edge="1" parent="1" target="h1d5hpDYS3AxuV8sNcCp-49">
          <mxGeometry x="-0.8039" y="10" width="160" relative="1" as="geometry">
            <mxPoint x="325" y="930" as="sourcePoint" />
            <mxPoint x="485" y="930" as="targetPoint" />
            <Array as="points">
              <mxPoint x="460" y="930" />
            </Array>
            <mxPoint as="offset" />
          </mxGeometry>
        </mxCell>
        <mxCell id="h1d5hpDYS3AxuV8sNcCp-63" value="&amp;lt;&amp;lt;include&amp;gt;&amp;gt;" style="html=1;verticalAlign=bottom;labelBackgroundColor=none;endArrow=open;endFill=0;dashed=1;rounded=0;exitX=1;exitY=0.5;exitDx=0;exitDy=0;entryX=0.694;entryY=1.028;entryDx=0;entryDy=0;entryPerimeter=0;" edge="1" parent="1" source="h1d5hpDYS3AxuV8sNcCp-35" target="h1d5hpDYS3AxuV8sNcCp-49">
          <mxGeometry x="-0.8548" y="2" width="160" relative="1" as="geometry">
            <mxPoint x="405" y="854.41" as="sourcePoint" />
            <mxPoint x="565" y="854.41" as="targetPoint" />
            <Array as="points">
              <mxPoint x="450" y="855" />
            </Array>
            <mxPoint x="-1" as="offset" />
          </mxGeometry>
        </mxCell>
        <mxCell id="h1d5hpDYS3AxuV8sNcCp-64" value="Deconnecter" style="ellipse;whiteSpace=wrap;html=1;" vertex="1" parent="1">
          <mxGeometry x="700" y="520" width="120" height="20" as="geometry" />
        </mxCell>
        <mxCell id="h1d5hpDYS3AxuV8sNcCp-65" value="&amp;lt;&amp;lt;extend&amp;gt;&amp;gt;" style="html=1;verticalAlign=bottom;labelBackgroundColor=none;endArrow=open;endFill=0;dashed=1;rounded=0;entryX=1;entryY=0.5;entryDx=0;entryDy=0;exitX=0.65;exitY=-0.2;exitDx=0;exitDy=0;exitPerimeter=0;" edge="1" parent="1" source="h1d5hpDYS3AxuV8sNcCp-64" target="h1d5hpDYS3AxuV8sNcCp-49">
          <mxGeometry x="0.5239" width="160" relative="1" as="geometry">
            <mxPoint x="710" y="510" as="sourcePoint" />
            <mxPoint x="870" y="510" as="targetPoint" />
            <Array as="points">
              <mxPoint x="780" y="440" />
            </Array>
            <mxPoint as="offset" />
          </mxGeometry>
        </mxCell>
      </root>
    </mxGraphModel>
  </diagram>
</mxfile>
